HIERARCHY
ROOT Hips
{
	OFFSET 0.000000 0.000000 0.000000
	CHANNELS 6 Xposition Yposition Zposition Xrotation Yrotation Zrotation
	JOINT LeftUpLeg_virtual
	{
		OFFSET 0.000000 0.000000 0.000000
		CHANNELS 3 Xrotation Yrotation Zrotation
		JOINT LeftUpLeg
		{
			OFFSET 11.394100 -6.187798 -0.413800
			CHANNELS 3 Xrotation Yrotation Zrotation
			JOINT LeftLeg
			{
				OFFSET 0.430247 -32.302673 3.732800
				CHANNELS 3 Xrotation Yrotation Zrotation
				JOINT LeftFoot
				{
					OFFSET -0.430247 -48.264931 -6.423300
					CHANNELS 3 Xrotation Yrotation Zrotation
					JOINT LeftToeBase
					{
						OFFSET 4.230900 -16.068199 23.438400
						CHANNELS 3 Xrotation Yrotation Zrotation
						JOINT LeftToe_End
						{
							OFFSET 4.510700 0.695400 19.974600
							CHANNELS 3 Xrotation Yrotation Zrotation
							End Site
							{
								OFFSET 0 0 0
							}
						}
					}
				}
			}
		}
	}
	JOINT RightUpLeg_virtual
	{
		OFFSET 0.000000 0.000000 0.000000
		CHANNELS 3 Xrotation Yrotation Zrotation
		JOINT RightUpLeg
		{
			OFFSET -11.333700 -6.187798 -0.413800
			CHANNELS 3 Xrotation Yrotation Zrotation
			JOINT RightLeg
			{
				OFFSET -0.430392 -32.302628 3.733000
				CHANNELS 3 Xrotation Yrotation Zrotation
				JOINT RightFoot
				{
					OFFSET 0.430392 -48.264973 -6.423500
					CHANNELS 3 Xrotation Yrotation Zrotation
					JOINT RightToeBase
					{
						OFFSET -4.230900 -16.068199 23.438400
						CHANNELS 3 Xrotation Yrotation Zrotation
						JOINT RightToe_End
						{
							OFFSET -4.510700 0.695400 19.974600
							CHANNELS 3 Xrotation Yrotation Zrotation
							End Site
							{
								OFFSET 0 0 0
							}
						}
					}
				}
			}
		}
	}
	JOINT Spine_virtual
	{
		OFFSET 0.000000 0.000000 0.000000
		CHANNELS 3 Xrotation Yrotation Zrotation
		JOINT Spine
		{
			OFFSET -0.002400 12.777504 0.315300
			CHANNELS 3 Xrotation Yrotation Zrotation
			JOINT Spine1
			{
				OFFSET -0.002067 5.816869 0.032633
				CHANNELS 3 Xrotation Yrotation Zrotation
				JOINT Spine1_split
				{
					OFFSET -0.002067 5.816869 0.032633
					CHANNELS 3 Xrotation Yrotation Zrotation
					JOINT Spine2
					{
						OFFSET -0.002067 5.816869 0.032633
						CHANNELS 3 Xrotation Yrotation Zrotation
						JOINT Neck_virtual
						{
							OFFSET 0.000000 0.000000 0.000000
							CHANNELS 3 Xrotation Yrotation Zrotation
							JOINT Neck
							{
								OFFSET -0.003700 21.199493 -0.826900
								CHANNELS 3 Xrotation Yrotation Zrotation
								JOINT Head
								{
									OFFSET 0.000000 20.442200 4.834800
									CHANNELS 3 Xrotation Yrotation Zrotation
									JOINT HeadTop_End
									{
										OFFSET 0.000000 34.668396 4.968400
										CHANNELS 3 Xrotation Yrotation Zrotation
										End Site
										{
											OFFSET 0 0 0
										}
									}
								}
							}
						}
						JOINT LeftShoulder_virtual
						{
							OFFSET 0.000000 0.000000 0.000000
							CHANNELS 3 Xrotation Yrotation Zrotation
							JOINT LeftShoulder
							{
								OFFSET 3.288150 8.794197 -1.372250
								CHANNELS 3 Xrotation Yrotation Zrotation
								JOINT LeftShoulder_split
								{
									OFFSET 3.288150 8.794197 -1.372250
									CHANNELS 3 Xrotation Yrotation Zrotation
									JOINT LeftArm
									{
										OFFSET 11.953299 -2.279007 -0.146200
										CHANNELS 3 Xrotation Yrotation Zrotation
										JOINT LeftForeArm
										{
											OFFSET 18.448900 0.000000 0.000000
											CHANNELS 3 Xrotation Yrotation Zrotation
											JOINT LeftHand
											{
												OFFSET 29.527798 0.000000 0.000000
												CHANNELS 3 Xrotation Yrotation Zrotation
												End Site
												{
													OFFSET 0 0 0
												}
											}
										}
									}
								}
							}
						}
						JOINT RightShoulder_virtual
						{
							OFFSET 0.000000 0.000000 0.000000
							CHANNELS 3 Xrotation Yrotation Zrotation
							JOINT RightShoulder
							{
								OFFSET -3.249400 8.794197 -1.372250
								CHANNELS 3 Xrotation Yrotation Zrotation
								JOINT RightShoulder_split
								{
									OFFSET -3.249400 8.794197 -1.372250
									CHANNELS 3 Xrotation Yrotation Zrotation
									JOINT RightArm
									{
										OFFSET -11.953299 -2.279007 -0.146200
										CHANNELS 3 Xrotation Yrotation Zrotation
										JOINT RightForeArm
										{
											OFFSET -18.448900 0.000000 0.000000
											CHANNELS 3 Xrotation Yrotation Zrotation
											JOINT RightHand
											{
												OFFSET -29.527802 0.000000 0.000000
												CHANNELS 3 Xrotation Yrotation Zrotation
												End Site
												{
													OFFSET 0 0 0
												}
											}
										}
									}
								}
							}
						}
					}
				}
			}
		}
	}
}
MOTION
Frames: 4
Frame Time: 0.03333333
-0.399489 90.655861 -0.215286 0.000000 0.000000 0.000000 -10.682091 -53.631434 -2.376669 -28.254683 13.141444 21.564791 40.274016 -3.206600 -0.745671 -2.663459 1.105720 -15.302144 -2.483930 0.000007 0.000005 0.000000 0.000000 0.000000 -10.682091 -53.631434 -2.376669 -29.747188 1.372609 -19.997045 50.789358 2.520742 -8.143356 -13.037197 -2.720424 16.581570 -2.290963 -0.000002 -0.000006 0.000000 0.000000 0.000000 -10.682091 -53.631434 -2.376669 6.703609 0.912708 -2.694293 13.440114 1.505918 -5.282123 0.000000 0.000000 0.000000 0.000000 0.000000 0.000000 13.440112 1.505939 -5.282130 3.996210 2.607471 -0.466375 -8.638514 40.681324 -5.376922 0.000000 0.000000 0.000000 13.440112 1.505939 -5.282130 -0.177273 -6.033943 5.204524 0.000000 0.000000 0.000000 -21.071651 17.785760 -57.231477 -180.000005 -53.681233 -179.999991 0.000000 0.000000 0.000000 13.440112 1.505939 -5.282130 10.920046 26.931035 3.130402 0.000000 0.000000 0.000000 -46.478170 38.185866 48.496075 -179.999923 69.435505 179.999882 0.000000 0.000000 0.000000 
-1.533912 90.789642 -1.899136 0.000000 0.000000 0.000000 -10.731153 -52.087893 -1.408426 -26.462065 12.274603 19.865277 37.014854 -3.408096 0.570141 -0.704771 1.922000 -16.771811 -5.669391 0.000007 0.000005 0.000000 0.000000 0.000000 -10.731153 -52.087893 -1.408426 -30.050401 1.090644 -19.738572 52.616379 1.852523 -7.567716 -14.881852 -3.907810 13.042957 -1.965100 -0.000014 0.000001 0.000000 0.000000 0.000000 -10.731153 -52.087893 -1.408426 7.705813 0.247197 -3.930445 13.471028 1.247503 -5.375650 0.000000 0.000000 0.000000 0.000000 0.000000 0.000000 13.463744 1.291644 -5.383119 3.970763 2.575122 -0.513152 -6.939619 39.500302 -7.024648 0.000000 0.000000 0.000000 13.463744 1.291644 -5.383119 -0.604231 -6.510264 2.042938 0.000000 0.000000 0.000000 -15.274311 19.486417 -56.458077 -179.999991 -51.120380 -179.999991 0.000000 0.000000 0.000000 13.463744 1.291644 -5.383119 10.874059 26.686430 2.331216 0.000000 0.000000 0.000000 -47.669878 38.728966 52.535653 -179.999937 74.887328 179.999937 0.000000 0.000000 0.000000 
-2.423309 90.948471 -4.398232 0.000000 0.000000 0.000000 -9.891555 -48.455083 -0.109501 -28.209357 8.482170 18.420967 35.463315 -1.927346 2.803131 6.187022 -0.492678 -20.171442 -8.253302 -0.000007 0.000006 0.000000 0.000000 0.000000 -9.891555 -48.455083 -0.109501 -30.366273 0.447492 -19.173261 54.252394 1.570867 -6.312509 -15.984226 -6.852185 9.733945 -2.401861 0.000017 0.000002 0.000000 0.000000 0.000000 -9.891555 -48.455083 -0.109501 11.212913 0.386599 -4.933141 13.743579 1.075063 -5.733797 0.000000 0.000000 0.000000 0.000000 0.000000 0.000000 13.747227 1.106302 -5.720676 3.149081 2.157393 -0.468785 -10.603127 33.243924 -7.617215 0.000000 0.000000 0.000000 13.747227 1.106302 -5.720676 -0.478520 -7.847193 1.562674 0.000000 0.000000 0.000000 -13.760015 17.595785 -53.833765 180.000005 -49.527051 179.999991 0.000000 0.000000 0.000000 13.747227 1.106302 -5.720676 10.980233 26.274290 0.074706 0.000000 0.000000 0.000000 -50.899939 37.184007 56.537707 179.999950 80.068723 -179.999937 0.000000 0.000000 0.000000 
-3.076316 91.178864 -7.855797 0.000000 0.000000 0.000000 -8.635097 -42.253118 1.294638 -33.916851 2.747101 16.663399 34.434993 -2.366645 5.391132 20.218608 -6.065964 -22.790798 -13.663315 -0.005265 0.079154 0.000000 0.000000 0.000000 -8.635097 -42.253118 1.294638 -31.718377 -0.537174 -18.786763 56.613030 1.539635 -4.324672 -15.440213 -11.436204 6.685206 -3.674527 0.000002 0.000001 0.000000 0.000000 0.000000 -8.635097 -42.253118 1.294638 17.933864 1.297746 -5.235758 14.257638 1.175851 -6.173253 0.000000 0.000000 0.000000 0.000000 0.000000 0.000000 14.271720 1.144410 -6.159656 1.030280 1.366867 -0.531299 -18.064098 21.785723 -7.186365 0.000000 0.000000 0.000000 14.271720 1.144410 -6.159656 0.113018 -10.231134 2.620948 0.000000 0.000000 0.000000 -19.533089 10.946765 -46.589400 179.999991 -49.272264 179.999964 0.000000 0.000000 0.000000 14.271720 1.144410 -6.159656 11.028382 25.558187 -3.395089 0.000000 0.000000 0.000000 -55.659584 32.942781 57.345975 179.999636 83.107754 -179.999595 0.000000 0.000000 0.000000 
